HIERARCHY
ROOT Hips
{
	OFFSET 0.000000 97.167313 0.000000
	CHANNELS 6 Xposition Yposition Zposition Xrotation Yrotation Zrotation
	JOINT Spine
	{
		OFFSET 0.000000 13.784798 0.064400
		CHANNELS 3 Xrotation Yrotation Zrotation
		JOINT Spine1
		{
			OFFSET 0.000000 12.037903 0.404700
			CHANNELS 3 Xrotation Yrotation Zrotation
			JOINT Spine2
			{
				OFFSET 0.000000 17.795601 0.420200
				CHANNELS 3 Xrotation Yrotation Zrotation
				JOINT Neck
				{
					OFFSET 0.000000 39.131302 11.954600
					CHANNELS 3 Xrotation Yrotation Zrotation
					JOINT Head
					{
						OFFSET 0.000000 14.456192 15.627699
						CHANNELS 3 Xrotation Yrotation Zrotation
						JOINT HeadTop_End
						{
							OFFSET 0.000000 15.703506 7.603401
							CHANNELS 3 Xrotation Yrotation Zrotation
							End Site
							{
								OFFSET 0.000000 17.447403 0.000000
							}
						}
					}
				}
				JOINT LeftShoulder
				{
					OFFSET 17.399500 24.608795 1.168800
					CHANNELS 3 Xrotation Yrotation Zrotation
					JOINT LeftArm
					{
						OFFSET 18.980635 5.765305 1.818600
						CHANNELS 3 Xrotation Yrotation Zrotation
						JOINT LeftForeArm
						{
							OFFSET 49.290169 0.000000 0.000000
							CHANNELS 3 Xrotation Yrotation Zrotation
							JOINT LeftHand
							{
								OFFSET 31.562012 0.000000 0.000000
								CHANNELS 3 Xrotation Yrotation Zrotation
								JOINT LeftHandThumb1
								{
									OFFSET 6.133995 -4.388519 7.076070
									CHANNELS 3 Xrotation Yrotation Zrotation
									JOINT LeftHandThumb2
									{
										OFFSET 6.037666 -3.485840 3.485847
										CHANNELS 3 Xrotation Yrotation Zrotation
										JOINT LeftHandThumb3
										{
											OFFSET 6.496506 -3.750763 3.750761
											CHANNELS 3 Xrotation Yrotation Zrotation
											JOINT LeftHandThumb4
											{
												OFFSET 5.616882 -3.242905 3.242910
												CHANNELS 3 Xrotation Yrotation Zrotation
												End Site
												{
													OFFSET -1.254608 7.132141 0.375429
												}
											}
										}
									}
								}
								JOINT LeftHandPinky1
								{
									OFFSET 18.920792 -0.453171 -11.426712
									CHANNELS 3 Xrotation Yrotation Zrotation
									JOINT LeftHandPinky2
									{
										OFFSET 4.919586 0.000000 0.000000
										CHANNELS 3 Xrotation Yrotation Zrotation
										JOINT LeftHandPinky3
										{
											OFFSET 5.233047 0.000000 0.000000
											CHANNELS 3 Xrotation Yrotation Zrotation
											JOINT LeftHandPinky4
											{
												OFFSET 5.571716 0.000000 0.000000
												CHANNELS 3 Xrotation Yrotation Zrotation
												End Site
												{
													OFFSET -3.459808 4.342407 -0.466164
												}
											}
										}
									}
								}
								JOINT LeftHandRing1
								{
									OFFSET 22.726120 -0.094986 -6.500475
									CHANNELS 3 Xrotation Yrotation Zrotation
									JOINT LeftHandRing2
									{
										OFFSET 6.408615 0.000000 0.000000
										CHANNELS 3 Xrotation Yrotation Zrotation
										JOINT LeftHandRing3
										{
											OFFSET 6.150223 0.000000 0.000000
											CHANNELS 3 Xrotation Yrotation Zrotation
											JOINT LeftHandRing4
											{
												OFFSET 6.145386 0.000000 0.000000
												CHANNELS 3 Xrotation Yrotation Zrotation
												End Site
												{
													OFFSET -3.671402 4.923981 -0.202372
												}
											}
										}
									}
								}
								JOINT LeftHandMiddle1
								{
									OFFSET 23.373947 0.000000 0.000001
									CHANNELS 3 Xrotation Yrotation Zrotation
									JOINT LeftHandMiddle2
									{
										OFFSET 6.996567 0.000000 0.000000
										CHANNELS 3 Xrotation Yrotation Zrotation
										JOINT LeftHandMiddle3
										{
											OFFSET 7.015945 0.000000 0.000000
											CHANNELS 3 Xrotation Yrotation Zrotation
											JOINT LeftHandMiddle4
											{
												OFFSET 7.721573 0.000000 0.000000
												CHANNELS 3 Xrotation Yrotation Zrotation
												End Site
												{
													OFFSET -4.651108 6.158463 0.251582
												}
											}
										}
									}
								}
								JOINT LeftHandIndex1
								{
									OFFSET 21.310577 -0.490082 6.209344
									CHANNELS 3 Xrotation Yrotation Zrotation
									JOINT LeftHandIndex2
									{
										OFFSET 7.536453 0.000000 0.000000
										CHANNELS 3 Xrotation Yrotation Zrotation
										JOINT LeftHandIndex3
										{
											OFFSET 7.512344 0.000000 0.000000
											CHANNELS 3 Xrotation Yrotation Zrotation
											JOINT LeftHandIndex4
											{
												OFFSET 10.212402 0.000000 0.000001
												CHANNELS 3 Xrotation Yrotation Zrotation
												End Site
												{
													OFFSET -5.180801 8.690506 1.388433
												}
											}
										}
									}
								}
							}
						}
					}
				}
				JOINT RightShoulder
				{
					OFFSET -17.399500 24.608795 1.168800
					CHANNELS 3 Xrotation Yrotation Zrotation
					JOINT RightArm
					{
						OFFSET -18.980635 5.765305 1.818600
						CHANNELS 3 Xrotation Yrotation Zrotation
						JOINT RightForeArm
						{
							OFFSET -49.290169 0.000000 0.000000
							CHANNELS 3 Xrotation Yrotation Zrotation
							JOINT RightHand
							{
								OFFSET -31.562012 0.000000 0.000000
								CHANNELS 3 Xrotation Yrotation Zrotation
								JOINT RightHandThumb1
								{
									OFFSET -6.133995 -4.388519 7.076070
									CHANNELS 3 Xrotation Yrotation Zrotation
									JOINT RightHandThumb2
									{
										OFFSET -6.037666 -3.485840 3.485847
										CHANNELS 3 Xrotation Yrotation Zrotation
										JOINT RightHandThumb3
										{
											OFFSET -6.496506 -3.750763 3.750761
											CHANNELS 3 Xrotation Yrotation Zrotation
											JOINT RightHandThumb4
											{
												OFFSET -5.616882 -3.242905 3.242910
												CHANNELS 3 Xrotation Yrotation Zrotation
												End Site
												{
													OFFSET 1.254608 7.132141 0.375429
												}
											}
										}
									}
								}
								JOINT RightHandIndex1
								{
									OFFSET -21.310577 -0.490082 6.209344
									CHANNELS 3 Xrotation Yrotation Zrotation
									JOINT RightHandIndex2
									{
										OFFSET -7.536453 0.000000 0.000000
										CHANNELS 3 Xrotation Yrotation Zrotation
										JOINT RightHandIndex3
										{
											OFFSET -7.512344 0.000000 0.000000
											CHANNELS 3 Xrotation Yrotation Zrotation
											JOINT RightHandIndex4
											{
												OFFSET -10.212402 0.000000 0.000001
												CHANNELS 3 Xrotation Yrotation Zrotation
												End Site
												{
													OFFSET 5.180801 8.690506 1.388433
												}
											}
										}
									}
								}
								JOINT RightHandMiddle1
								{
									OFFSET -23.373947 0.000000 0.000001
									CHANNELS 3 Xrotation Yrotation Zrotation
									JOINT RightHandMiddle2
									{
										OFFSET -6.996567 0.000000 0.000000
										CHANNELS 3 Xrotation Yrotation Zrotation
										JOINT RightHandMiddle3
										{
											OFFSET -7.015945 0.000000 0.000000
											CHANNELS 3 Xrotation Yrotation Zrotation
											JOINT RightHandMiddle4
											{
												OFFSET -7.721573 0.000000 0.000000
												CHANNELS 3 Xrotation Yrotation Zrotation
												End Site
												{
													OFFSET 4.651108 6.158463 0.251582
												}
											}
										}
									}
								}
								JOINT RightHandRing1
								{
									OFFSET -22.726120 -0.094986 -6.500475
									CHANNELS 3 Xrotation Yrotation Zrotation
									JOINT RightHandRing2
									{
										OFFSET -6.408615 0.000000 0.000000
										CHANNELS 3 Xrotation Yrotation Zrotation
										JOINT RightHandRing3
										{
											OFFSET -6.150223 0.000000 0.000000
											CHANNELS 3 Xrotation Yrotation Zrotation
											JOINT RightHandRing4
											{
												OFFSET -6.145386 0.000000 0.000000
												CHANNELS 3 Xrotation Yrotation Zrotation
												End Site
												{
													OFFSET 3.671402 4.923981 -0.202372
												}
											}
										}
									}
								}
								JOINT RightHandPinky1
								{
									OFFSET -18.920792 -0.453171 -11.426712
									CHANNELS 3 Xrotation Yrotation Zrotation
									JOINT RightHandPinky2
									{
										OFFSET -4.919586 0.000000 0.000000
										CHANNELS 3 Xrotation Yrotation Zrotation
										JOINT RightHandPinky3
										{
											OFFSET -5.233047 0.000000 0.000000
											CHANNELS 3 Xrotation Yrotation Zrotation
											JOINT RightHandPinky4
											{
												OFFSET -5.571716 0.000000 0.000000
												CHANNELS 3 Xrotation Yrotation Zrotation
												End Site
												{
													OFFSET 3.459808 4.342407 -0.466164
												}
											}
										}
									}
								}
							}
						}
					}
				}
			}
		}
	}
	JOINT LeftUpLeg
	{
		OFFSET 19.899099 -7.885101 -3.429500
		CHANNELS 3 Xrotation Yrotation Zrotation
		JOINT LeftLeg
		{
			OFFSET 1.745560 -36.997807 10.304700
			CHANNELS 3 Xrotation Yrotation Zrotation
			JOINT LeftFoot
			{
				OFFSET -1.745558 -29.803308 -13.615400
				CHANNELS 3 Xrotation Yrotation Zrotation
				JOINT LeftToeBase
				{
					OFFSET 1.181900 -18.539904 15.226099
					CHANNELS 3 Xrotation Yrotation Zrotation
					JOINT LeftToe_End
					{
						OFFSET -0.863701 1.402801 16.534700
						CHANNELS 3 Xrotation Yrotation Zrotation
						End Site
						{
							OFFSET 0.000000 16.616566 0.000000
						}
					}
				}
			}
		}
	}
	JOINT RightUpLeg
	{
		OFFSET -19.899099 -7.885101 -3.429500
		CHANNELS 3 Xrotation Yrotation Zrotation
		JOINT RightLeg
		{
			OFFSET -1.745560 -36.997807 10.304700
			CHANNELS 3 Xrotation Yrotation Zrotation
			JOINT RightFoot
			{
				OFFSET 1.745558 -29.803308 -13.615400
				CHANNELS 3 Xrotation Yrotation Zrotation
				JOINT RightToeBase
				{
					OFFSET -1.181900 -18.539904 15.226099
					CHANNELS 3 Xrotation Yrotation Zrotation
					JOINT RightToe_End
					{
						OFFSET 0.863701 1.402801 16.534700
						CHANNELS 3 Xrotation Yrotation Zrotation
						End Site
						{
							OFFSET 0.000000 16.616566 0.000000
						}
					}
				}
			}
		}
	}
}
MOTION
Frames: 4
Frame Time: 0.033333
-80.799294 83.709236 115.524124 -54.967884 -63.858130 -44.348849 3.099050 10.627130 4.102317 8.310550 13.947339 -0.652918 8.378118 13.907933 -0.785811 12.894566 1.754015 -0.255628 23.513386 9.953270 -5.119779 0.000002 0.000001 0.000000 1.348465 12.788542 -15.082075 -17.217437 37.079769 -17.660482 -0.000001 -1.217584 -0.000004 -46.325451 1.432118 36.928353 -3.724654 2.540241 7.558532 7.197279 21.874606 2.198513 -6.041468 8.561884 15.423740 -0.000000 0.000001 -0.000002 1.299814 5.968378 -37.856706 1.042773 3.337893 -34.689954 1.042761 3.337884 -34.689967 0.000001 -0.000001 -0.000006 1.086069 5.662976 -34.205096 0.840609 3.025525 -31.048780 0.840620 3.025501 -31.048770 0.000000 0.000002 0.000000 0.739427 5.089346 -27.749148 0.533076 2.443577 -24.609462 0.533070 2.443592 -24.609460 0.000002 -0.000001 0.000006 0.543930 4.681616 -23.321884 0.360229 2.024457 -20.177820 0.360753 2.025799 -20.192141 -0.000001 0.000003 0.000001 -1.681550 29.745890 19.205172 21.232266 71.278112 -6.976176 0.000023 54.273117 -0.000010 39.672805 10.717487 0.045088 -8.332080 12.748213 -2.219586 5.777231 -9.494923 -1.641387 -6.176976 -0.665250 -13.627377 -0.000002 -0.000005 0.000002 0.077501 -2.805713 6.696502 0.013241 -0.351301 4.316655 0.013019 -0.348458 4.281556 -0.000006 0.000001 -0.000001 0.202109 -3.470523 14.996232 0.111972 -1.016125 12.575739 0.111964 -1.016143 12.575726 0.000000 0.000001 -0.000004 0.362703 -3.964937 21.318931 0.251381 -1.510865 18.891549 0.251393 -1.510864 18.891581 -0.000003 -0.000003 -0.000003 0.500252 -4.298919 25.786811 0.382260 -1.849536 23.353214 0.382266 -1.849527 23.353195 0.000001 -0.000000 0.000006 -68.607468 0.876193 5.926881 57.023180 -2.439872 -8.667568 28.722325 -18.296304 -27.103775 4.783963 0.000021 -0.000002 -0.000000 0.000000 -0.000001 17.434266 10.359955 7.647709 44.508579 2.122712 -10.104181 -32.683391 33.599306 -8.820181 0.000059 -0.000002 0.000003 0.000000 -0.000000 -0.000000 
-78.217003 83.511024 115.974014 -43.980520 -61.493334 -38.117083 2.894660 8.889222 4.625108 7.700078 11.670337 -0.470450 7.686773 11.641895 -0.582048 12.439493 2.249473 -0.358576 21.901304 12.118805 -4.307872 -0.000000 0.000000 -0.000000 0.812065 9.071704 -11.789222 -23.590490 30.089879 -13.423583 0.000005 -10.961747 0.000011 -45.239983 -2.105610 34.062953 -3.693177 2.674994 7.601753 7.216445 22.016533 2.210082 -6.023295 8.700333 15.457447 -0.000001 -0.000000 -0.000002 1.327459 6.003371 -38.287076 1.067891 3.373819 -35.118971 1.067886 3.373829 -35.118985 -0.000003 0.000000 -0.000002 1.107350 5.693802 -34.566167 0.859717 3.056963 -31.408823 0.859716 3.056957 -31.408809 0.000001 0.000001 0.000005 0.750865 5.110883 -27.987914 0.543274 2.465716 -24.847636 0.543268 2.465723 -24.847661 -0.000000 -0.000003 0.000008 0.550228 4.696142 -23.476880 0.366414 2.041209 -20.352447 0.366243 2.040665 -20.346799 -0.000003 0.000002 -0.000001 -1.794593 28.646462 20.157036 0.581645 63.098613 7.073806 -0.000003 51.603404 0.000006 38.117797 13.640503 5.318692 -8.129620 12.155067 -2.464188 5.860382 -10.142208 -1.701946 -6.078459 -1.298068 -13.770970 0.000002 -0.000001 -0.000000 0.082302 -2.846569 7.206848 0.016637 -0.393693 4.838317 0.016309 -0.389871 4.791647 -0.000000 -0.000001 0.000001 0.210059 -3.500181 15.377759 0.118824 -1.046423 12.956888 0.118822 -1.046407 12.956888 -0.000001 0.000001 -0.000004 0.370998 -3.986133 21.602323 0.258891 -1.532639 19.174556 0.258889 -1.532665 19.174559 -0.000001 -0.000001 -0.000005 0.507667 -4.314277 26.000812 0.389181 -1.865487 23.566863 0.389194 -1.865481 23.566866 0.000000 -0.000000 0.000006 -66.995604 -2.785080 11.170134 61.315319 -2.701679 -8.871207 31.721874 -22.307070 -23.615581 5.513882 -0.000002 0.000006 -0.000001 0.000000 0.000001 13.378776 9.311655 11.457938 41.968353 2.244180 -7.909624 -29.711186 32.248755 -8.579669 0.000015 -0.000003 0.000006 -0.000000 -0.000000 0.000000 
-74.849068 83.661652 116.035637 -33.420112 -56.704657 -31.486547 3.160776 7.355275 4.707934 7.781096 9.496815 -0.068745 7.814598 9.517915 -0.143461 12.042167 2.492698 -0.684210 18.621684 12.814054 -2.824939 0.000001 -0.000000 -0.000000 0.748732 5.353938 -11.621785 -30.906346 20.007004 -8.557630 0.000019 -24.400059 0.000005 -41.607258 -6.266929 33.498133 -3.677022 2.744754 7.624354 7.226587 22.089563 2.216059 -6.013710 8.771547 15.474866 -0.000001 -0.000000 -0.000003 1.331701 6.008689 -38.347913 1.071472 3.378890 -35.179641 1.071463 3.378902 -35.179651 -0.000003 -0.000000 -0.000001 1.108735 5.695815 -34.584526 0.860711 3.058566 -31.427128 0.860699 3.058550 -31.427138 -0.000000 -0.000000 0.000005 0.748128 5.105784 -27.931283 0.540859 2.460477 -24.791155 0.540845 2.460471 -24.791169 -0.000000 0.000001 0.000009 0.545822 4.686026 -23.368883 0.363582 2.033442 -20.271587 0.362405 2.030300 -20.239048 0.000001 0.000001 -0.000001 -1.723540 26.857590 20.648468 -9.315398 53.744170 9.720473 0.000015 49.743178 -0.000012 33.788516 11.185558 6.830678 -7.889726 11.438762 -2.755505 5.959767 -10.922769 -1.773964 -5.961906 -2.061396 -13.942772 -0.000001 -0.000001 0.000002 0.088743 -2.897020 7.836069 0.021326 -0.445729 5.479754 0.020871 -0.440880 5.420545 -0.000002 -0.000003 -0.000001 0.220495 -3.538049 15.864108 0.127861 -1.084922 13.442732 0.127866 -1.084925 13.442731 -0.000001 0.000001 -0.000006 0.382235 -4.014402 21.979790 0.269064 -1.561594 19.551519 0.269074 -1.561602 19.551504 -0.000001 0.000001 -0.000003 0.518256 -4.335971 26.301341 0.399017 -1.887853 23.866896 0.399029 -1.887830 23.866880 -0.000000 -0.000000 0.000006 -65.536293 -6.457923 14.326735 63.174441 -3.215450 -8.357796 33.820098 -24.734453 -20.947948 5.856711 0.000012 -0.000005 -0.000002 -0.000001 0.000000 10.455637 6.204171 13.733410 38.529049 1.883950 -5.431921 -26.737906 31.127949 -7.856387 0.000052 -0.000014 0.000010 -0.000000 -0.000000 -0.000000 
-71.143463 84.037750 115.450569 -23.329167 -50.947310 -24.053006 3.524638 6.083760 4.360576 8.171107 7.467785 0.016759 8.205340 7.483578 -0.089432 11.725866 2.493551 -0.699090 14.378434 12.543786 -0.920695 -0.000000 -0.000000 -0.000000 0.743263 2.551924 -12.676946 -37.150420 6.270690 -5.724201 -0.000001 -34.719662 -0.000002 -33.851432 -11.573645 30.724879 -3.669067 2.779737 7.635912 7.231853 22.125754 2.219054 -6.008712 8.806819 15.483602 -0.000002 -0.000000 0.000001 1.316430 5.989490 -38.102296 1.057074 3.358417 -34.934830 1.057081 3.358432 -34.934833 0.000000 -0.000001 -0.000006 1.093581 5.673938 -34.318559 0.846607 3.035419 -31.161973 0.846592 3.035401 -31.161994 0.000001 -0.000000 0.000007 0.733714 5.078532 -27.629433 0.528012 2.432484 -24.490038 0.527991 2.432446 -24.490039 -0.000000 -0.000000 0.000001 0.532652 4.655372 -23.042398 0.353312 2.005475 -19.980542 0.350947 1.998987 -19.913217 0.000001 0.000003 0.000003 -1.563355 24.242228 21.216200 -17.609520 44.827986 10.798515 -0.000007 46.701347 0.000007 32.995592 12.868695 4.306461 -7.619156 10.613082 -3.085987 6.073091 -11.821029 -1.855411 -5.830697 -2.940130 -14.138677 0.000000 -0.000001 -0.000001 0.096955 -2.955841 8.569432 0.027527 -0.506185 6.226064 0.026895 -0.500296 6.153518 -0.000002 -0.000003 -0.000001 0.233320 -3.582957 16.441433 0.139015 -1.130560 14.019466 0.139015 -1.130548 14.019458 0.000000 -0.000000 -0.000006 0.396165 -4.048733 22.438257 0.281683 -1.596661 20.009326 0.281692 -1.596667 20.009328 0.000000 0.000000 -0.000005 0.531650 -4.363000 26.675767 0.411412 -1.915595 24.240693 0.411427 -1.915620 24.240700 0.000000 -0.000001 -0.000001 -65.235041 -8.766308 14.964068 62.873011 -3.597262 -6.859898 34.061313 -24.808282 -19.087671 5.764650 -0.000024 -0.000008 0.000000 0.000003 0.000003 7.034130 0.519898 14.426357 35.739658 1.880183 -4.384985 -24.289396 29.984759 -6.798687 -0.000017 0.000009 0.000004 -0.000000 0.000000 0.000000 
